<?xml version="1.0" standalone="no"?>
<!DOCTYPE svg PUBLIC "-//W3C//DTD SVG 20010904//EN"
 "http://www.w3.org/TR/2001/REC-SVG-20010904/DTD/svg10.dtd">
<svg version="1.0" xmlns="http://www.w3.org/2000/svg"
 width="512.000000pt" height="512.000000pt" viewBox="0 0 512.000000 512.000000"
 preserveAspectRatio="xMidYMid meet">

<g transform="translate(0.000000,512.000000) scale(0.100000,-0.100000)"
fill="#000000" stroke="none">
<path d="M690 5105 c-148 -42 -275 -166 -329 -323 -30 -87 -30 -237 0 -324 56
-161 163 -265 334 -325 46 -16 140 -18 1260 -20 696 -2 1213 -7 1218 -12 8 -8
-136 -188 -423 -526 -42 -49 -159 -189 -260 -310 -369 -442 -508 -608 -565
-675 -54 -63 -107 -127 -142 -170 -15 -19 -38 -46 -50 -60 -26 -30 -126 -149
-373 -445 -101 -121 -242 -290 -314 -375 -71 -85 -148 -177 -170 -204 -23 -27
-59 -70 -81 -96 -22 -26 -58 -69 -80 -95 -22 -27 -58 -70 -80 -95 -88 -102
-201 -244 -226 -284 -48 -77 -69 -156 -69 -266 0 -114 21 -191 75 -275 73
-112 162 -177 288 -210 85 -22 3657 -23 3739 -1 156 42 281 161 337 324 30 87
30 237 0 324 -55 159 -174 275 -334 326 -44 14 -187 16 -1260 19 -695 2 -1213
7 -1218 12 -8 8 122 170 425 529 43 50 113 134 156 185 43 50 183 218 312 372
128 154 247 296 264 316 17 20 58 69 91 109 33 40 67 80 75 89 8 9 33 39 54
66 22 28 47 57 55 66 9 9 32 36 52 60 59 72 138 166 249 298 58 68 130 154
160 191 30 37 134 161 230 275 96 114 186 222 199 239 14 17 41 49 60 72 20
22 54 62 76 89 22 27 58 70 80 95 88 102 201 244 226 284 48 77 69 156 69 266
0 76 -5 115 -21 162 -58 169 -186 288 -352 327 -72 17 -3675 13 -3737 -4z"/>
</g>
</svg>
